<svg width="194" height="41" viewBox="0 0 194 41" fill="none" xmlns="http://www.w3.org/2000/svg">
<path d="M54.872 30V13.08H57.968V20.136H66.632V13.08H69.728V30H66.632V22.704H57.968V30H54.872ZM79.0739 30.24C77.0419 30.24 75.4499 29.68 74.2979 28.56C73.1459 27.44 72.5699 25.904 72.5699 23.952C72.5699 22.688 72.8179 21.584 73.3139 20.64C73.8099 19.696 74.4979 18.96 75.3779 18.432C76.2739 17.904 77.3139 17.64 78.4979 17.64C79.6659 17.64 80.6419 17.888 81.4259 18.384C82.2099 18.88 82.8019 19.576 83.2019 20.472C83.6179 21.368 83.8259 22.416 83.8259 23.616V24.408H74.9939V22.824H81.6899L81.2819 23.16C81.2819 22.04 81.0419 21.184 80.5619 20.592C80.0979 20 79.4179 19.704 78.5219 19.704C77.5299 19.704 76.7619 20.056 76.2179 20.76C75.6899 21.464 75.4259 22.448 75.4259 23.712V24.024C75.4259 25.336 75.7459 26.32 76.3859 26.976C77.0419 27.616 77.9619 27.936 79.1459 27.936C79.8339 27.936 80.4739 27.848 81.0659 27.672C81.6739 27.48 82.2499 27.176 82.7939 26.76L83.6819 28.776C83.1059 29.24 82.4179 29.6 81.6179 29.856C80.8179 30.112 79.9699 30.24 79.0739 30.24ZM91.0464 30.24C89.9904 30.24 89.0624 29.992 88.2624 29.496C87.4624 28.984 86.8384 28.256 86.3904 27.312C85.9424 26.368 85.7184 25.24 85.7184 23.928C85.7184 22.616 85.9424 21.496 86.3904 20.568C86.8384 19.624 87.4624 18.904 88.2624 18.408C89.0624 17.896 89.9904 17.64 91.0464 17.64C92.0704 17.64 92.9664 17.896 93.7344 18.408C94.5184 18.904 95.0384 19.576 95.2944 20.424H95.0304L95.2944 17.88H98.1744C98.1264 18.376 98.0784 18.88 98.0304 19.392C97.9984 19.904 97.9824 20.408 97.9824 20.904V30H95.0064L94.9824 27.504H95.2704C95.0144 28.336 94.4944 29 93.7104 29.496C92.9264 29.992 92.0384 30.24 91.0464 30.24ZM91.8864 27.936C92.8304 27.936 93.5904 27.608 94.1664 26.952C94.7424 26.28 95.0304 25.272 95.0304 23.928C95.0304 22.584 94.7424 21.584 94.1664 20.928C93.5904 20.272 92.8304 19.944 91.8864 19.944C90.9424 19.944 90.1824 20.272 89.6064 20.928C89.0304 21.584 88.7424 22.584 88.7424 23.928C88.7424 25.272 89.0224 26.28 89.5824 26.952C90.1584 27.608 90.9264 27.936 91.8864 27.936ZM101.249 30V12.336H104.249V30H101.249ZM112.691 30.24C111.251 30.24 110.163 29.864 109.427 29.112C108.691 28.36 108.323 27.232 108.323 25.728V20.136H105.995V17.88H108.323V14.784L111.323 14.016V17.88H114.563V20.136H111.323V25.536C111.323 26.368 111.483 26.952 111.803 27.288C112.123 27.624 112.563 27.792 113.123 27.792C113.427 27.792 113.683 27.768 113.891 27.72C114.115 27.672 114.331 27.608 114.539 27.528V29.904C114.267 30.016 113.963 30.096 113.627 30.144C113.307 30.208 112.995 30.24 112.691 30.24ZM116.601 30V12.336H119.601V20.304H119.265C119.633 19.44 120.201 18.784 120.969 18.336C121.737 17.872 122.617 17.64 123.609 17.64C125.049 17.64 126.121 18.048 126.825 18.864C127.529 19.664 127.881 20.888 127.881 22.536V30H124.881V22.68C124.881 21.736 124.697 21.056 124.329 20.64C123.977 20.208 123.409 19.992 122.625 19.992C121.713 19.992 120.977 20.28 120.417 20.856C119.873 21.416 119.601 22.168 119.601 23.112V30H116.601ZM137.206 30.24C135.846 30.24 134.59 30.072 133.438 29.736C132.302 29.384 131.326 28.904 130.51 28.296L131.47 25.872C132.014 26.256 132.582 26.584 133.174 26.856C133.766 27.112 134.398 27.312 135.07 27.456C135.742 27.584 136.454 27.648 137.206 27.648C138.47 27.648 139.382 27.44 139.942 27.024C140.502 26.608 140.782 26.064 140.782 25.392C140.782 24.8 140.59 24.352 140.206 24.048C139.822 23.728 139.134 23.464 138.142 23.256L135.43 22.704C133.878 22.384 132.718 21.848 131.95 21.096C131.182 20.344 130.798 19.336 130.798 18.072C130.798 17.016 131.078 16.096 131.638 15.312C132.198 14.528 132.982 13.92 133.99 13.488C134.998 13.056 136.174 12.84 137.518 12.84C138.718 12.84 139.83 13.016 140.854 13.368C141.878 13.704 142.734 14.192 143.422 14.832L142.462 17.136C141.774 16.56 141.022 16.136 140.206 15.864C139.39 15.576 138.478 15.432 137.47 15.432C136.334 15.432 135.446 15.656 134.806 16.104C134.182 16.536 133.87 17.136 133.87 17.904C133.87 18.496 134.062 18.968 134.446 19.32C134.846 19.672 135.518 19.944 136.462 20.136L139.15 20.664C140.75 20.984 141.934 21.512 142.702 22.248C143.47 22.968 143.854 23.944 143.854 25.176C143.854 26.184 143.582 27.072 143.038 27.84C142.494 28.592 141.726 29.184 140.734 29.616C139.742 30.032 138.566 30.24 137.206 30.24ZM152.098 30.24C150.85 30.24 149.754 29.984 148.81 29.472C147.882 28.96 147.162 28.232 146.65 27.288C146.138 26.328 145.882 25.192 145.882 23.88C145.882 22.568 146.138 21.448 146.65 20.52C147.178 19.592 147.906 18.88 148.834 18.384C149.762 17.888 150.85 17.64 152.098 17.64C152.898 17.64 153.674 17.768 154.426 18.024C155.194 18.264 155.818 18.616 156.298 19.08L155.386 21.168C154.954 20.768 154.466 20.472 153.922 20.28C153.394 20.072 152.874 19.968 152.362 19.968C151.29 19.968 150.45 20.304 149.842 20.976C149.25 21.648 148.954 22.624 148.954 23.904C148.954 25.184 149.25 26.168 149.842 26.856C150.45 27.544 151.29 27.888 152.362 27.888C152.858 27.888 153.37 27.792 153.898 27.6C154.442 27.408 154.938 27.112 155.386 26.712L156.298 28.776C155.802 29.24 155.17 29.6 154.402 29.856C153.65 30.112 152.882 30.24 152.098 30.24ZM163.862 30.24C162.614 30.24 161.534 29.984 160.622 29.472C159.71 28.96 158.998 28.232 158.486 27.288C157.99 26.344 157.742 25.224 157.742 23.928C157.742 22.632 157.99 21.52 158.486 20.592C158.998 19.648 159.71 18.92 160.622 18.408C161.534 17.896 162.614 17.64 163.862 17.64C165.11 17.64 166.19 17.896 167.102 18.408C168.03 18.92 168.742 19.648 169.238 20.592C169.75 21.52 170.006 22.632 170.006 23.928C170.006 25.224 169.75 26.344 169.238 27.288C168.742 28.232 168.03 28.96 167.102 29.472C166.19 29.984 165.11 30.24 163.862 30.24ZM163.862 27.936C164.806 27.936 165.558 27.608 166.118 26.952C166.678 26.28 166.958 25.272 166.958 23.928C166.958 22.584 166.678 21.584 166.118 20.928C165.558 20.272 164.806 19.944 163.862 19.944C162.918 19.944 162.166 20.272 161.606 20.928C161.046 21.584 160.766 22.584 160.766 23.928C160.766 25.272 161.046 26.28 161.606 26.952C162.166 27.608 162.918 27.936 163.862 27.936ZM172.569 30V20.976C172.569 20.464 172.553 19.944 172.521 19.416C172.505 18.888 172.465 18.376 172.401 17.88H175.305L175.641 21.192H175.161C175.321 20.392 175.585 19.728 175.953 19.2C176.337 18.672 176.801 18.28 177.345 18.024C177.889 17.768 178.481 17.64 179.121 17.64C179.409 17.64 179.641 17.656 179.817 17.688C179.993 17.704 180.169 17.744 180.345 17.808L180.321 20.448C180.017 20.32 179.753 20.24 179.529 20.208C179.321 20.176 179.057 20.16 178.737 20.16C178.049 20.16 177.465 20.304 176.985 20.592C176.521 20.88 176.169 21.28 175.929 21.792C175.705 22.304 175.593 22.888 175.593 23.544V30H172.569ZM187.683 30.24C185.651 30.24 184.059 29.68 182.907 28.56C181.755 27.44 181.179 25.904 181.179 23.952C181.179 22.688 181.427 21.584 181.923 20.64C182.419 19.696 183.107 18.96 183.987 18.432C184.883 17.904 185.923 17.64 187.107 17.64C188.275 17.64 189.251 17.888 190.035 18.384C190.819 18.88 191.411 19.576 191.811 20.472C192.227 21.368 192.435 22.416 192.435 23.616V24.408H183.603V22.824H190.299L189.891 23.16C189.891 22.04 189.651 21.184 189.171 20.592C188.707 20 188.027 19.704 187.131 19.704C186.139 19.704 185.371 20.056 184.827 20.76C184.299 21.464 184.035 22.448 184.035 23.712V24.024C184.035 25.336 184.355 26.32 184.995 26.976C185.651 27.616 186.571 27.936 187.755 27.936C188.443 27.936 189.083 27.848 189.675 27.672C190.283 27.48 190.859 27.176 191.403 26.76L192.291 28.776C191.715 29.24 191.027 29.6 190.227 29.856C189.427 30.112 188.579 30.24 187.683 30.24Z" fill="#233348"/>
<circle cx="20.5" cy="20.5" r="20.5" fill="#458FF6"/>
<path d="M13.028 31V12.67H16.382V20.314H25.768V12.67H29.122V31H25.768V23.096H16.382V31H13.028Z" fill="white"/>
</svg>
